<svg width="1378" height="310" xmlns="http://www.w3.org/2000/svg" xmlns:xlink="http://www.w3.org/1999/xlink" xml:space="preserve" overflow="hidden"><g transform="translate(-260 -990)"><path d="M309.5 1123.5C309.5 1059.99 360.987 1008.5 424.5 1008.5 488.013 1008.5 539.5 1059.99 539.5 1123.5 539.5 1187.01 488.013 1238.5 424.5 1238.5 360.987 1238.5 309.5 1187.01 309.5 1123.5Z" stroke="#042433" stroke-width="6.875" stroke-miterlimit="8" fill="#156082" fill-rule="evenodd"/><text fill="#FFFFFF" font-family="Aptos,Aptos_MSFontService,sans-serif" font-weight="700" font-size="147" transform="matrix(1 0 0 1 348.381 1170)">v1</text><path d="M834.5 1123.5C834.5 1059.99 885.987 1008.5 949.5 1008.5 1013.01 1008.5 1064.5 1059.99 1064.5 1123.5 1064.5 1187.01 1013.01 1238.5 949.5 1238.5 885.987 1238.5 834.5 1187.01 834.5 1123.5Z" stroke="#042433" stroke-width="6.875" stroke-miterlimit="8" fill="#156082" fill-rule="evenodd"/><text fill="#FFFFFF" font-family="Aptos,Aptos_MSFontService,sans-serif" font-weight="700" font-size="147" transform="matrix(1 0 0 1 873.558 1170)">v2</text><path d="M1359.5 1123.5C1359.5 1059.99 1410.99 1008.5 1474.5 1008.5 1538.01 1008.5 1589.5 1059.99 1589.5 1123.5 1589.5 1187.01 1538.01 1238.5 1474.5 1238.5 1410.99 1238.5 1359.5 1187.01 1359.5 1123.5Z" stroke="#042433" stroke-width="6.875" stroke-miterlimit="8" fill="#156082" fill-rule="evenodd"/><text fill="#FFFFFF" font-family="Aptos,Aptos_MSFontService,sans-serif" font-weight="700" font-size="147" transform="matrix(1 0 0 1 1398.74 1170)">v3</text><path d="M539.5 1113.19 783.434 1113.19 783.434 1133.81 539.5 1133.81ZM773.122 1092.56 834.997 1123.5 773.122 1154.44Z" fill="#156082"/><path d="M0.0230483-10.3125 243.958-9.76728 243.912 10.8577-0.0230483 10.3125ZM233.691-30.4153 295.497 0.660433 233.553 31.4596Z" fill="#156082" transform="matrix(1 0 0 -1 1064.5 1124.16)"/></g></svg>