<svg width="1903" height="668" xmlns="http://www.w3.org/2000/svg" xmlns:xlink="http://www.w3.org/1999/xlink" xml:space="preserve" overflow="hidden"><g transform="translate(-260 -632)"><path d="M309.5 1123.5C309.5 1059.99 360.987 1008.5 424.5 1008.5 488.013 1008.5 539.5 1059.99 539.5 1123.5 539.5 1187.01 488.013 1238.5 424.5 1238.5 360.987 1238.5 309.5 1187.01 309.5 1123.5Z" stroke="#042433" stroke-width="6.875" stroke-miterlimit="8" fill="#156082" fill-rule="evenodd"/><text fill="#FFFFFF" font-family="Aptos,Aptos_MSFontService,sans-serif" font-weight="700" font-size="147" transform="matrix(1 0 0 1 348.381 1170)">v1</text><path d="M834.5 1123.5C834.5 1059.99 885.987 1008.5 949.5 1008.5 1013.01 1008.5 1064.5 1059.99 1064.5 1123.5 1064.5 1187.01 1013.01 1238.5 949.5 1238.5 885.987 1238.5 834.5 1187.01 834.5 1123.5Z" stroke="#042433" stroke-width="6.875" stroke-miterlimit="8" fill="#156082" fill-rule="evenodd"/><text fill="#FFFFFF" font-family="Aptos,Aptos_MSFontService,sans-serif" font-weight="700" font-size="147" transform="matrix(1 0 0 1 873.558 1170)">v2</text><path d="M1359.5 1123.5C1359.5 1059.99 1410.99 1008.5 1474.5 1008.5 1538.01 1008.5 1589.5 1059.99 1589.5 1123.5 1589.5 1187.01 1538.01 1238.5 1474.5 1238.5 1410.99 1238.5 1359.5 1187.01 1359.5 1123.5Z" stroke="#042433" stroke-width="6.875" stroke-miterlimit="8" fill="#156082" fill-rule="evenodd"/><text fill="#FFFFFF" font-family="Aptos,Aptos_MSFontService,sans-serif" font-weight="700" font-size="147" transform="matrix(1 0 0 1 1398.74 1170)">v3</text><path d="M539.5 1113.19 783.434 1113.19 783.434 1133.81 539.5 1133.81ZM773.122 1092.56 834.997 1123.5 773.122 1154.44Z" fill="#156082"/><path d="M0.0230483-10.3125 243.958-9.76728 243.912 10.8577-0.0230483 10.3125ZM233.691-30.4153 295.497 0.660433 233.553 31.4596Z" fill="#156082" transform="matrix(1 0 0 -1 1064.5 1124.16)"/><path d="M1884.5 1123C1884.5 1059.76 1935.99 1008.5 1999.5 1008.5 2063.01 1008.5 2114.5 1059.76 2114.5 1123 2114.5 1186.24 2063.01 1237.5 1999.5 1237.5 1935.99 1237.5 1884.5 1186.24 1884.5 1123Z" stroke="#042433" stroke-width="6.875" stroke-miterlimit="8" fill="#156082" fill-rule="evenodd"/><text fill="#FFFFFF" font-family="Aptos,Aptos_MSFontService,sans-serif" font-weight="700" font-size="147" transform="matrix(1 0 0 1 1923.91 1170)">v4</text><path d="M0.0230483-10.3125 243.958-9.76728 243.912 10.8577-0.0230483 10.3125ZM233.691-30.4153 295.497 0.660433 233.553 31.4596Z" fill="#156082" transform="matrix(1 0 0 -1 1589.5 1124.16)"/><path d="M1163.5 765C1163.5 701.763 1214.99 650.5 1278.5 650.5 1342.01 650.5 1393.5 701.763 1393.5 765 1393.5 828.237 1342.01 879.5 1278.5 879.5 1214.99 879.5 1163.5 828.237 1163.5 765Z" stroke="#042433" stroke-width="6.875" stroke-miterlimit="8" fill="#156082" fill-rule="evenodd"/><text fill="#FFFFFF" font-family="Aptos,Aptos_MSFontService,sans-serif" font-weight="700" font-size="147" transform="matrix(1 0 0 1 1202.46 812)">v5</text><path d="M8.08603-6.40029 153.49 177.3 137.317 190.101-8.08603 6.40029ZM163.261 156.414 177.405 224.131 114.745 194.815Z" fill="#156082" transform="matrix(1 0 0 -1 1025.5 1056.63)"/><path d="M1393.6 752.188 1618.67 754.445 1618.46 775.069 1393.4 772.812ZM1608.56 733.718 1670.13 765.274 1607.94 795.59Z" fill="#156082"/><path d="M1669.5 765C1669.5 701.763 1720.99 650.5 1784.5 650.5 1848.01 650.5 1899.5 701.763 1899.5 765 1899.5 828.237 1848.01 879.5 1784.5 879.5 1720.99 879.5 1669.5 828.237 1669.5 765Z" stroke="#042433" stroke-width="6.875" stroke-miterlimit="8" fill="#156082" fill-rule="evenodd"/><text fill="#FFFFFF" font-family="Aptos,Aptos_MSFontService,sans-serif" font-weight="700" font-size="147" transform="matrix(1 0 0 1 1708.77 812)">v6</text></g></svg>