<svg width="2749" height="2046" xmlns="http://www.w3.org/2000/svg" xmlns:xlink="http://www.w3.org/1999/xlink" xml:space="preserve" overflow="hidden"><g transform="translate(-257 -235)"><path d="M306.5 1807.5C306.5 1743.99 357.987 1692.5 421.5 1692.5 485.013 1692.5 536.5 1743.99 536.5 1807.5 536.5 1871.01 485.013 1922.5 421.5 1922.5 357.987 1922.5 306.5 1871.01 306.5 1807.5Z" stroke="#042433" stroke-width="6.875" stroke-miterlimit="8" fill="#156082" fill-rule="evenodd"/><text fill="#FFFFFF" font-family="Aptos,Aptos_MSFontService,sans-serif" font-weight="700" font-size="147" transform="matrix(1 0 0 1 345.461 1854)">v1</text><path d="M831.5 1807.5C831.5 1743.99 882.987 1692.5 946.5 1692.5 1010.01 1692.5 1061.5 1743.99 1061.5 1807.5 1061.5 1871.01 1010.01 1922.5 946.5 1922.5 882.987 1922.5 831.5 1871.01 831.5 1807.5Z" stroke="#042433" stroke-width="6.875" stroke-miterlimit="8" fill="#156082" fill-rule="evenodd"/><text fill="#FFFFFF" font-family="Aptos,Aptos_MSFontService,sans-serif" font-weight="700" font-size="147" transform="matrix(1 0 0 1 870.638 1854)">v2</text><path d="M1356.5 1806.5C1356.5 1742.99 1407.99 1691.5 1471.5 1691.5 1535.01 1691.5 1586.5 1742.99 1586.5 1806.5 1586.5 1870.01 1535.01 1921.5 1471.5 1921.5 1407.99 1921.5 1356.5 1870.01 1356.5 1806.5Z" stroke="#042433" stroke-width="6.875" stroke-miterlimit="8" fill="#156082" fill-rule="evenodd"/><text fill="#FFFFFF" font-family="Aptos,Aptos_MSFontService,sans-serif" font-weight="700" font-size="147" transform="matrix(1 0 0 1 1395.82 1853)">v3</text><path d="M536.5 1797.19 780.435 1797.19 780.434 1817.81 536.5 1817.81ZM770.122 1776.56 831.997 1807.5 770.122 1838.44Z" fill="#156082"/><path d="M0.0230483-10.3125 243.958-9.76728 243.912 10.8577-0.0230483 10.3125ZM233.691-30.4153 295.497 0.660433 233.553 31.4596Z" fill="#156082" transform="matrix(1 0 0 -1 1061.5 1807.16)"/><path d="M1881.5 1806.5C1881.5 1742.99 1932.99 1691.5 1996.5 1691.5 2060.01 1691.5 2111.5 1742.99 2111.5 1806.5 2111.5 1870.01 2060.01 1921.5 1996.5 1921.5 1932.99 1921.5 1881.5 1870.01 1881.5 1806.5Z" stroke="#042433" stroke-width="6.875" stroke-miterlimit="8" fill="#156082" fill-rule="evenodd"/><text fill="#FFFFFF" font-family="Aptos,Aptos_MSFontService,sans-serif" font-weight="700" font-size="147" transform="matrix(1 0 0 1 1920.99 1853)">v4</text><path d="M0.0230483-10.3125 243.958-9.76728 243.912 10.8577-0.0230483 10.3125ZM233.691-30.4153 295.497 0.660433 233.553 31.4596Z" fill="#156082" transform="matrix(1 0 0 -1 1586.5 1807.16)"/><path d="M1160.5 1448.5C1160.5 1384.99 1211.99 1333.5 1275.5 1333.5 1339.01 1333.5 1390.5 1384.99 1390.5 1448.5 1390.5 1512.01 1339.01 1563.5 1275.5 1563.5 1211.99 1563.5 1160.5 1512.01 1160.5 1448.5Z" stroke="#042433" stroke-width="6.875" stroke-miterlimit="8" fill="#156082" fill-rule="evenodd"/><text fill="#FFFFFF" font-family="Aptos,Aptos_MSFontService,sans-serif" font-weight="700" font-size="147" transform="matrix(1 0 0 1 1199.54 1495)">v5</text><path d="M8.08603-6.40029 153.49 177.3 137.317 190.101-8.08603 6.40029ZM163.261 156.414 177.405 224.131 114.745 194.815Z" fill="#156082" transform="matrix(1 0 0 -1 1022.5 1739.63)"/><path d="M1390.6 1435.19 1615.67 1437.45 1615.46 1458.07 1390.4 1455.81ZM1605.56 1416.72 1667.13 1448.27 1604.94 1478.59Z" fill="#156082"/><path d="M1666.5 1448.5C1666.5 1384.99 1717.99 1333.5 1781.5 1333.5 1845.01 1333.5 1896.5 1384.99 1896.5 1448.5 1896.5 1512.01 1845.01 1563.5 1781.5 1563.5 1717.99 1563.5 1666.5 1512.01 1666.5 1448.5Z" stroke="#042433" stroke-width="6.875" stroke-miterlimit="8" fill="#156082" fill-rule="evenodd"/><text fill="#FFFFFF" font-family="Aptos,Aptos_MSFontService,sans-serif" font-weight="700" font-size="147" transform="matrix(1 0 0 1 1705.85 1495)">v6</text><path d="M306.5 754.5C306.5 690.987 357.987 639.5 421.5 639.5 485.013 639.5 536.5 690.987 536.5 754.5 536.5 818.013 485.013 869.5 421.5 869.5 357.987 869.5 306.5 818.013 306.5 754.5Z" stroke="#042433" stroke-width="6.875" stroke-miterlimit="8" fill="#156082" fill-rule="evenodd"/><text fill="#FFFFFF" font-family="Aptos,Aptos_MSFontService,sans-serif" font-weight="700" font-size="147" transform="matrix(1 0 0 1 345.461 801)">v1</text><path d="M831.5 754.5C831.5 690.987 882.987 639.5 946.5 639.5 1010.01 639.5 1061.5 690.987 1061.5 754.5 1061.5 818.013 1010.01 869.5 946.5 869.5 882.987 869.5 831.5 818.013 831.5 754.5Z" stroke="#042433" stroke-width="6.875" stroke-miterlimit="8" fill="#156082" fill-rule="evenodd"/><text fill="#FFFFFF" font-family="Aptos,Aptos_MSFontService,sans-serif" font-weight="700" font-size="147" transform="matrix(1 0 0 1 870.638 801)">v2</text><path d="M1356.5 754C1356.5 690.763 1407.99 639.5 1471.5 639.5 1535.01 639.5 1586.5 690.763 1586.5 754 1586.5 817.237 1535.01 868.5 1471.5 868.5 1407.99 868.5 1356.5 817.237 1356.5 754Z" stroke="#042433" stroke-width="6.875" stroke-miterlimit="8" fill="#156082" fill-rule="evenodd"/><text fill="#FFFFFF" font-family="Aptos,Aptos_MSFontService,sans-serif" font-weight="700" font-size="147" transform="matrix(1 0 0 1 1395.82 801)">v3</text><path d="M536.5 744.188 780.435 744.188 780.434 764.813 536.5 764.813ZM770.122 723.563 831.997 754.5 770.122 785.438Z" fill="#156082"/><path d="M0.0230483-10.3125 243.958-9.76728 243.912 10.8577-0.0230483 10.3125ZM233.691-30.4153 295.497 0.660433 233.553 31.4596Z" fill="#156082" transform="matrix(1 0 0 -1 1061.5 755.16)"/><path d="M1881.5 754C1881.5 690.763 1932.99 639.5 1996.5 639.5 2060.01 639.5 2111.5 690.763 2111.5 754 2111.5 817.237 2060.01 868.5 1996.5 868.5 1932.99 868.5 1881.5 817.237 1881.5 754Z" stroke="#042433" stroke-width="6.875" stroke-miterlimit="8" fill="#156082" fill-rule="evenodd"/><text fill="#FFFFFF" font-family="Aptos,Aptos_MSFontService,sans-serif" font-weight="700" font-size="147" transform="matrix(1 0 0 1 1920.99 801)">v4</text><path d="M0.0230483-10.3125 243.958-9.76728 243.912 10.8577-0.0230483 10.3125ZM233.691-30.4153 295.497 0.660433 233.553 31.4596Z" fill="#156082" transform="matrix(1 0 0 -1 1586.5 755.16)"/><path d="M2221.5 367.5C2221.5 303.987 2272.99 252.5 2336.5 252.5 2400.01 252.5 2451.5 303.987 2451.5 367.5 2451.5 431.013 2400.01 482.5 2336.5 482.5 2272.99 482.5 2221.5 431.013 2221.5 367.5Z" stroke="#042433" stroke-width="6.875" stroke-miterlimit="8" fill="#156082" fill-rule="evenodd"/><text fill="#FFFFFF" font-family="Aptos,Aptos_MSFontService,sans-serif" font-weight="700" font-size="147" transform="matrix(1 0 0 1 2260.81 414)">v5</text><path d="M8.08603-6.40029 153.49 177.3 137.317 190.101-8.08603 6.40029ZM163.261 156.414 177.405 224.131 114.745 194.815Z" fill="#156082" transform="matrix(1 0 0 -1 2078.5 672.631)"/><path d="M2451.6 354.188 2676.67 356.445 2676.46 377.069 2451.4 374.812ZM2666.56 335.718 2728.13 367.274 2665.94 397.59Z" fill="#156082"/><path d="M2728.5 367.5C2728.5 303.987 2779.76 252.5 2843 252.5 2906.24 252.5 2957.5 303.987 2957.5 367.5 2957.5 431.013 2906.24 482.5 2843 482.5 2779.76 482.5 2728.5 431.013 2728.5 367.5Z" stroke="#042433" stroke-width="6.875" stroke-miterlimit="8" fill="#156082" fill-rule="evenodd"/><text fill="#FFFFFF" font-family="Aptos,Aptos_MSFontService,sans-serif" font-weight="700" font-size="147" transform="matrix(1 0 0 1 2767.11 414)">v</text><text fill="#FFFFFF" font-family="Aptos,Aptos_MSFontService,sans-serif" font-weight="700" font-size="147" transform="matrix(1 0 0 1 2839.3 414)">6</text><path d="M1903 2274 1903 2008.5 1990.5 1921 2078 2008.5 2078 2274Z" stroke="#4EA72E" stroke-width="13.75" stroke-miterlimit="8" fill="#FFFFFF" fill-rule="evenodd"/><text font-family="Aptos,Aptos_MSFontService,sans-serif" font-weight="400" font-size="83" transform="matrix(-1.83697e-16 -1 1 -1.83697e-16 2016.58 2209)">main</text><path d="M1681 1916 1681 1650.5 1768.5 1563 1856 1650.5 1856 1916Z" stroke="#4EA72E" stroke-width="13.75" stroke-miterlimit="8" fill="#FFFFFF" fill-rule="evenodd"/><text font-family="Aptos,Aptos_MSFontService,sans-serif" font-weight="400" font-size="83" transform="matrix(-1.83697e-16 -1 1 -1.83697e-16 1794.64 1868)">bugfix</text><path d="M2746 835 2746 569.5 2833.5 482 2921 569.5 2921 835Z" stroke="#4EA72E" stroke-width="13.75" stroke-miterlimit="8" fill="#FFFFFF" fill-rule="evenodd"/><text font-family="Aptos,Aptos_MSFontService,sans-serif" font-weight="400" font-size="83" transform="matrix(-1.83697e-16 -1 1 -1.83697e-16 2860.42 749)">test</text><path d="M1909 1238 1909 971.5 1996.5 884 2084 971.5 2084 1238Z" stroke="#4EA72E" stroke-width="13.75" stroke-miterlimit="8" fill="#FFFFFF" fill-rule="evenodd"/><text font-family="Aptos,Aptos_MSFontService,sans-serif" font-weight="400" font-size="83" transform="matrix(-1.83697e-16 -1 1 -1.83697e-16 2022.82 1172)">main</text></g></svg>